<svg width="21" height="18" viewBox="0 0 21 18" fill="none" xmlns="http://www.w3.org/2000/svg">
<path d="M18.1888 2.01024C17.1287 0.947444 15.7236 0.298776 14.2271 0.181406C12.7306 0.0640361 11.2415 0.485702 10.0288 1.37024C8.75644 0.423874 7.17277 -0.00525253 5.5967 0.169274C4.02063 0.3438 2.56922 1.10901 1.53475 2.31082C0.500286 3.51263 -0.0403987 5.06176 0.0215801 6.64625C0.0835589 8.23074 0.743597 9.73291 1.86878 10.8502L8.07878 17.0702C8.5988 17.582 9.29917 17.8688 10.0288 17.8688C10.7584 17.8688 11.4588 17.582 11.9788 17.0702L18.1888 10.8502C19.3564 9.6755 20.0117 8.08651 20.0117 6.43024C20.0117 4.77396 19.3564 3.18497 18.1888 2.01024ZM16.7788 9.47024L10.5688 15.6802C10.4981 15.7516 10.414 15.8082 10.3213 15.8469C10.2286 15.8855 10.1292 15.9054 10.0288 15.9054C9.92835 15.9054 9.82893 15.8855 9.73624 15.8469C9.64355 15.8082 9.55945 15.7516 9.48878 15.6802L3.27878 9.44024C2.49454 8.63858 2.05539 7.5617 2.05539 6.44024C2.05539 5.31877 2.49454 4.24189 3.27878 3.44024C4.07793 2.65122 5.15575 2.20881 6.27878 2.20881C7.40181 2.20881 8.47962 2.65122 9.27878 3.44024C9.37174 3.53396 9.48234 3.60836 9.6042 3.65913C9.72606 3.7099 9.85677 3.73603 9.98878 3.73603C10.1208 3.73603 10.2515 3.7099 10.3734 3.65913C10.4952 3.60836 10.6058 3.53396 10.6988 3.44024C11.4979 2.65122 12.5758 2.20881 13.6988 2.20881C14.8218 2.20881 15.8996 2.65122 16.6988 3.44024C17.4938 4.23139 17.9474 5.30243 17.9623 6.42392C17.9773 7.54542 17.5524 8.62817 16.7788 9.44024V9.47024Z" fill="#0D4133"/>
</svg>
