<svg width="16" height="12" viewBox="0 0 16 12" fill="none" xmlns="http://www.w3.org/2000/svg">
<path d="M15.92 4.38034C15.8724 4.25764 15.801 4.14544 15.71 4.05034L12.71 1.05038C12.6168 0.957136 12.5061 0.883176 12.3842 0.832716C12.2624 0.782256 12.1319 0.756287 12 0.756287C11.7337 0.756287 11.4783 0.862076 11.29 1.05038C11.1968 1.14362 11.1228 1.25431 11.0723 1.37613C11.0219 1.49795 10.9959 1.62852 10.9959 1.76038C10.9959 2.02668 11.1017 2.28208 11.29 2.47038L12.59 3.76038H3C2.20435 3.76038 1.44129 4.07644 0.87868 4.63904C0.31607 5.20164 0 5.96474 0 6.76034V10.7603C0 11.0256 0.10536 11.2799 0.29289 11.4674C0.48043 11.655 0.73478 11.7603 1 11.7603C1.26522 11.7603 1.51957 11.655 1.70711 11.4674C1.89464 11.2799 2 11.0256 2 10.7603V6.76034C2 6.49514 2.10536 6.24084 2.29289 6.05324C2.48043 5.86574 2.73478 5.76034 3 5.76034H12.59L11.29 7.05034C11.1963 7.14334 11.1219 7.25394 11.0711 7.37584C11.0203 7.49764 10.9942 7.62834 10.9942 7.76034C10.9942 7.89244 11.0203 8.02314 11.0711 8.14494C11.1219 8.26684 11.1963 8.37744 11.29 8.47034C11.383 8.56414 11.4936 8.63854 11.6154 8.68924C11.7373 8.74004 11.868 8.76614 12 8.76614C12.132 8.76614 12.2627 8.74004 12.3846 8.68924C12.5064 8.63854 12.617 8.56414 12.71 8.47034L15.71 5.47034C15.801 5.37524 15.8724 5.26314 15.92 5.14034C16.02 4.89694 16.02 4.62384 15.92 4.38034Z" fill="#0D4133"/>
</svg>
