<svg width="19" height="20" viewBox="0 0 19 20" fill="none" xmlns="http://www.w3.org/2000/svg">
<path d="M17.874 15.26L15.164 10.58C15.7185 9.5615 16.0074 8.41967 16.004 7.25999C16.004 5.40348 15.2665 3.623 13.9537 2.31025C12.641 0.997492 10.8605 0.259995 9.00398 0.259995C7.14746 0.259995 5.36699 0.997492 4.05423 2.31025C2.74148 3.623 2.00398 5.40348 2.00398 7.25999C2.00054 8.41967 2.28943 9.5615 2.84398 10.58L0.133979 15.26C0.0460405 15.4123 -0.000173265 15.5851 4.8815e-07 15.761C0.000174242 15.9369 0.0467292 16.1096 0.134969 16.2617C0.223208 16.4139 0.350011 16.54 0.502585 16.6275C0.655158 16.715 0.828106 16.7607 1.00398 16.76H3.87398L5.33398 19.22C5.3832 19.3015 5.44381 19.3756 5.51398 19.44C5.69936 19.6187 5.94651 19.719 6.20398 19.72H6.34398C6.49495 19.6993 6.6392 19.6444 6.76572 19.5595C6.89224 19.4746 6.99767 19.3619 7.07398 19.23L9.00398 15.91L10.934 19.26C11.0114 19.39 11.1173 19.5008 11.2438 19.5839C11.3702 19.6671 11.5139 19.7204 11.664 19.74H11.804C12.0649 19.7416 12.3161 19.6411 12.504 19.46C12.5712 19.3993 12.6286 19.3284 12.674 19.25L14.134 16.79H17.004C17.1802 16.7907 17.3535 16.7448 17.5062 16.657C17.659 16.5692 17.7859 16.4426 17.874 16.29C17.9674 16.1345 18.0168 15.9564 18.0168 15.775C18.0168 15.5936 17.9674 15.4155 17.874 15.26ZM6.19398 16.79L5.30398 15.3C5.21634 15.1522 5.09209 15.0294 4.9432 14.9436C4.79432 14.8578 4.62582 14.8117 4.45398 14.81H2.72398L4.15398 12.33C5.1387 13.2789 6.3798 13.9185 7.72398 14.17L6.19398 16.79ZM9.00398 12.26C8.01507 12.26 7.04837 11.9667 6.22613 11.4173C5.40388 10.8679 4.76302 10.087 4.38458 9.17341C4.00614 8.25978 3.90713 7.25445 4.10005 6.28454C4.29298 5.31464 4.76918 4.42372 5.46844 3.72446C6.16771 3.0252 7.05862 2.54899 8.02853 2.35607C8.99843 2.16314 10.0038 2.26216 10.9174 2.6406C11.831 3.01904 12.6119 3.6599 13.1613 4.48214C13.7107 5.30439 14.004 6.27109 14.004 7.25999C14.004 8.58608 13.4772 9.85785 12.5395 10.7955C11.6018 11.7332 10.3301 12.26 9.00398 12.26ZM13.554 14.81C13.3821 14.8117 13.2136 14.8578 13.0648 14.9436C12.9159 15.0294 12.7916 15.1522 12.704 15.3L11.814 16.79L10.294 14.14C11.6335 13.8834 12.8699 13.2443 13.854 12.3L15.284 14.78L13.554 14.81Z" fill="#0D4133"/>
</svg>
