<svg width="49" height="17" viewBox="0 0 49 17" fill="none" xmlns="http://www.w3.org/2000/svg">
<path d="M1.472 17C1.296 17 1.152 16.944 1.04 16.832C0.928 16.72 0.872 16.584 0.872 16.424V0.8C0.872 0.623999 0.928 0.479999 1.04 0.368C1.152 0.255999 1.296 0.199999 1.472 0.199999H3.368C3.592 0.199999 3.76 0.263999 3.872 0.391999C3.984 0.503999 4.056 0.591999 4.088 0.655999L8.72 9.296L13.4 0.655999C13.432 0.591999 13.504 0.503999 13.616 0.391999C13.728 0.263999 13.896 0.199999 14.12 0.199999H15.992C16.168 0.199999 16.312 0.255999 16.424 0.368C16.536 0.479999 16.592 0.623999 16.592 0.8V16.424C16.592 16.584 16.536 16.72 16.424 16.832C16.312 16.944 16.168 17 15.992 17H13.976C13.8 17 13.656 16.944 13.544 16.832C13.448 16.72 13.4 16.584 13.4 16.424V6.032L10.04 12.44C9.96 12.584 9.856 12.712 9.728 12.824C9.6 12.92 9.432 12.968 9.224 12.968H8.24C8.016 12.968 7.84 12.92 7.712 12.824C7.6 12.712 7.504 12.584 7.424 12.44L4.064 6.032V16.424C4.064 16.584 4.008 16.72 3.896 16.832C3.784 16.944 3.648 17 3.488 17H1.472ZM19.2931 17C19.1651 17 19.0451 16.952 18.9331 16.856C18.8371 16.76 18.7891 16.64 18.7891 16.496C18.7891 16.432 18.8051 16.36 18.8371 16.28L24.6211 0.8C24.6691 0.639999 24.7571 0.503999 24.8851 0.391999C25.0291 0.263999 25.2211 0.199999 25.4611 0.199999H28.0771C28.3171 0.199999 28.5011 0.263999 28.6291 0.391999C28.7571 0.503999 28.8531 0.639999 28.9171 0.8L34.7011 16.28C34.7171 16.36 34.7251 16.432 34.7251 16.496C34.7251 16.64 34.6771 16.76 34.5811 16.856C34.4851 16.952 34.3731 17 34.2451 17H32.1571C31.9331 17 31.7651 16.952 31.6531 16.856C31.5571 16.744 31.4931 16.64 31.4611 16.544L30.3331 13.616H23.2051L22.0771 16.544C22.0451 16.64 21.9731 16.744 21.8611 16.856C21.7651 16.952 21.6051 17 21.3811 17H19.2931ZM24.0451 10.856H29.4931L26.7571 3.44L24.0451 10.856ZM37.5418 17C37.3818 17 37.2458 16.944 37.1338 16.832C37.0218 16.72 36.9658 16.584 36.9658 16.424V0.8C36.9658 0.623999 37.0218 0.479999 37.1338 0.368C37.2458 0.255999 37.3818 0.199999 37.5418 0.199999H48.1018C48.2778 0.199999 48.4218 0.255999 48.5338 0.368C48.6458 0.479999 48.7018 0.623999 48.7018 0.8V2.384C48.7018 2.544 48.6458 2.68 48.5338 2.792C48.4218 2.904 48.2778 2.96 48.1018 2.96H40.2058V7.208H47.5738C47.7498 7.208 47.8938 7.264 48.0058 7.376C48.1178 7.472 48.1738 7.608 48.1738 7.784V9.272C48.1738 9.448 48.1178 9.592 48.0058 9.704C47.8938 9.8 47.7498 9.848 47.5738 9.848H40.2058V14.24H48.2938C48.4698 14.24 48.6138 14.296 48.7258 14.408C48.8378 14.52 48.8938 14.664 48.8938 14.84V16.424C48.8938 16.584 48.8378 16.72 48.7258 16.832C48.6138 16.944 48.4698 17 48.2938 17H37.5418Z" fill="#082921"/>
</svg>
